<?xml version="1.0" ?>
<!DOCTYPE svg  PUBLIC '-//W3C//DTD SVG 1.1//EN'  'http://www.w3.org/Graphics/SVG/1.1/DTD/svg11.dtd'>
<!-- Uploaded to: SVG Repo, www.svgrepo.com, Generator: SVG Repo Mixer Tools -->
<svg width="800px" height="800px" viewBox="0 0 32 32" enable-background="new 0 0 32 32" version="1.1" xml:space="preserve" xmlns="http://www.w3.org/2000/svg" xmlns:xlink="http://www.w3.org/1999/xlink">
<g id="Layer_2"/>
<g id="Layer_3"/>
<g id="Layer_4"/>
<g id="Layer_5"/>
<g id="Layer_6"/>
<g id="Layer_7"/>
<g id="Layer_8"/>
<g id="Layer_9"/>
<g id="Layer_10"/>
<g id="Layer_11"/>
<g id="Layer_12"/>
<g id="Layer_13"/>
<g id="Layer_14"/>
<g id="Layer_15"/>
<g id="Layer_16"/>
<g id="Layer_17"/>
<g id="Layer_18"/>
<g id="Layer_19"/>
<g id="Layer_20"/>
<g id="Layer_21"/>
<g id="Layer_22"/>
<g id="Layer_23"/>
<g id="Layer_24"/>
<g id="Layer_25">
<g>
<path d="M16,27c-0.6,0-1-0.4-1-1v-3c0-0.6,0.4-1,1-1s1,0.4,1,1v3C17,26.6,16.6,27,16,27z" fill="#16BCD4"/>
</g>
<g>
<path d="M16,31c-0.6,0-1-0.4-1-1v-1c0-0.6,0.4-1,1-1s1,0.4,1,1v1C17,30.6,16.6,31,16,31z" fill="#16BCD4"/>
</g>
<g>
<path d="M10,27c-0.6,0-1-0.4-1-1v-3c0-0.6,0.4-1,1-1s1,0.4,1,1v3C11,26.6,10.6,27,10,27z" fill="#16BCD4"/>
</g>
<g>
<path d="M10,31c-0.6,0-1-0.4-1-1v-1c0-0.6,0.4-1,1-1s1,0.4,1,1v1C11,30.6,10.6,31,10,31z" fill="#16BCD4"/>
</g>
<g>
<path d="M22,27c-0.6,0-1-0.4-1-1v-3c0-0.6,0.4-1,1-1s1,0.4,1,1v3C23,26.6,22.6,27,22,27z" fill="#16BCD4"/>
</g>
<g>
<path d="M22,31c-0.6,0-1-0.4-1-1v-1c0-0.6,0.4-1,1-1s1,0.4,1,1v1C23,30.6,22.6,31,22,31z" fill="#16BCD4"/>
</g>
<g>
<path d="M31,15c0,5-4.5,9-10,9H8c-3.9,0-7-3.1-7-7s3.1-7,7-7c1.4,0,2.8,0.4,3.9,1.2C13.5,8.1,17.1,6,21,6    C26.5,6,31,10,31,15z" fill="#607C8B"/>
</g>
</g>
<g id="Wearher"/>
</svg>