<?xml version="1.0" ?>
<!DOCTYPE svg  PUBLIC '-//W3C//DTD SVG 1.1//EN'  'http://www.w3.org/Graphics/SVG/1.1/DTD/svg11.dtd'>
<!-- Uploaded to: SVG Repo, www.svgrepo.com, Generator: SVG Repo Mixer Tools -->
<svg width="800px" height="800px" viewBox="0 0 32 32" enable-background="new 0 0 32 32" version="1.1" xml:space="preserve" xmlns="http://www.w3.org/2000/svg" xmlns:xlink="http://www.w3.org/1999/xlink">
<g id="Layer_2">
<g>
<path d="M23,24c0,3.9-3.1,7-7,7s-7-3.1-7-7c0-2.3,1.1-4.4,3-5.7V5c0-2.2,1.8-4,4-4s4,1.8,4,4v13.3    C21.9,19.6,23,21.7,23,24z" fill="#E92662"/>
</g>
<g>
<path d="M20,24c0,2.2-1.8,4-4,4s-4-1.8-4-4c0-1.9,1.3-3.4,3-3.9V13c0-0.5,0.5-1,1-1s1,0.5,1,1v7.1    C18.7,20.6,20,22.1,20,24z" fill="#FFC10A"/>
</g>
<path d="M10,15H9v-1c0-0.6-0.4-1-1-1s-1,0.4-1,1v1H6c-0.6,0-1,0.4-1,1s0.4,1,1,1h1v1c0,0.6,0.4,1,1,1s1-0.4,1-1v-1   h1c0.6,0,1-0.4,1-1S10.6,15,10,15z" fill="#FFC10A"/>
</g>
<g id="Layer_3"/>
<g id="Layer_4"/>
<g id="Layer_5"/>
<g id="Layer_6"/>
<g id="Layer_7"/>
<g id="Layer_8"/>
<g id="Layer_9"/>
<g id="Layer_10"/>
<g id="Layer_11"/>
<g id="Layer_12"/>
<g id="Layer_13"/>
<g id="Layer_14"/>
<g id="Layer_15"/>
<g id="Layer_16"/>
<g id="Layer_17"/>
<g id="Layer_18"/>
<g id="Layer_19"/>
<g id="Layer_20"/>
<g id="Layer_21"/>
<g id="Layer_22"/>
<g id="Layer_23"/>
<g id="Layer_24"/>
<g id="Layer_25"/>
<g id="Wearher"/>
</svg>