<?xml version="1.0" encoding="iso-8859-1"?>
<!-- Uploaded to: SVG Repo, www.svgrepo.com, Generator: SVG Repo Mixer Tools -->
<svg height="800px" width="800px" version="1.1" id="Layer_1" xmlns="http://www.w3.org/2000/svg" xmlns:xlink="http://www.w3.org/1999/xlink" 
	 viewBox="0 0 512 512" xml:space="preserve">
<path style="fill:#007AB7;" d="M512,214.442c0-9.181-7.443-16.623-16.623-16.623H16.623C7.443,197.819,0,205.262,0,214.442
	c0,9.181,7.443,16.623,16.623,16.623h478.753C504.557,231.065,512,223.623,512,214.442z"/>
<g>
	<path style="fill:#0EABD9;" d="M233.275,197.819H16.623C7.443,197.819,0,205.262,0,214.442c0,9.181,7.443,16.623,16.623,16.623
		h216.651V197.819z"/>
	<path style="fill:#0EABD9;" d="M334.274,340.78H128.019c-9.181,0-16.623,7.443-16.623,16.623c0,9.181,7.443,16.623,16.623,16.623
		h206.255c9.181,0,16.623-7.443,16.623-16.623C350.897,348.223,343.456,340.78,334.274,340.78z"/>
</g>
<path style="fill:#91C0F1;" d="M233.835,340.78H128.019c-9.181,0-16.623,7.443-16.623,16.623c0,9.181,7.443,16.623,16.623,16.623
	h105.817V340.78z"/>
<path style="fill:#0EABD9;" d="M430.767,340.78H395.34c-9.181,0-16.623,7.443-16.623,16.623c0,9.181,7.443,16.623,16.623,16.623
	h35.427c9.181,0,16.623-7.443,16.623-16.623C447.391,348.223,439.948,340.78,430.767,340.78z"/>
<path style="fill:#91C0F1;" d="M483.105,286.317l-66.509-76.094c-18.719-21.418-45.763-34.13-74.198-34.879
	c-10.003-0.263-19.91,0.962-29.416,3.546c-0.668-2.398-1.886-4.935-3.666-6.91c-19.345-21.466-46.971-34.007-75.857-34.007
	c-0.131,0-0.266,0-0.397,0c-29.028,1.108-56.724,12.886-75.988,34.6L56.477,286.099c-4.342,4.895-5.409,12.095-2.726,18.063
	s8.618,10.021,15.162,10.021h401.676c6.521,0,12.44-3.963,15.136-9.901S487.397,291.228,483.105,286.317z"/>
<path style="fill:#D7EDF3;" d="M233.461,137.975c-0.131,0-0.266,0-0.397,0c-29.028,1.108-56.725,12.886-75.988,34.6L56.477,286.099
	c-4.342,4.895-5.409,12.095-2.726,18.063s8.618,10.021,15.162,10.021h164.491C233.403,314.182,233.063,137.975,233.461,137.975z"/>
<path style="fill:#007AB7;" d="M495.377,292.018H44.125c-9.181,0-16.623,7.443-16.623,16.623c0,9.181,7.443,16.623,16.623,16.623
	h451.252c9.181,0,16.623-7.443,16.623-16.623C512,299.461,504.557,292.018,495.377,292.018z"/>
<path style="fill:#0EABD9;" d="M233.461,292.018H44.125c-9.181,0-16.623,7.443-16.623,16.623c0,9.181,7.443,16.623,16.623,16.623
	H233.46v-33.247H233.461z"/>
</svg>