<?xml version="1.0" encoding="iso-8859-1"?>
<!-- Uploaded to: SVG Repo, www.svgrepo.com, Generator: SVG Repo Mixer Tools -->
<svg height="800px" width="800px" version="1.1" id="Layer_1" xmlns="http://www.w3.org/2000/svg" xmlns:xlink="http://www.w3.org/1999/xlink" 
	 viewBox="0 0 512 512" xml:space="preserve">
<circle style="fill:#4D4D4D;" cx="302.83" cy="255.997" r="174.827"/>
<path style="fill:#F7B239;" d="M302.83,81.176c-13.238,0-26.13,1.48-38.527,4.269c78.016,17.549,136.3,87.242,136.3,170.558
	s-58.284,153.01-136.3,170.558c12.397,2.788,25.289,4.269,38.527,4.269c96.554,0,174.827-78.273,174.827-174.827
	S399.384,81.176,302.83,81.176z"/>
<g>
	<path style="fill:#2197D8;" d="M479.32,134.217c18.05,0,32.68,14.641,32.68,32.691c0,9.025-3.663,17.195-9.568,23.111
		c-5.917,5.917-14.086,9.58-23.111,9.58h-10.978H391.3h-8.089c-18.05,0-32.691-14.641-32.691-32.691
		c0-8.956,3.605-17.056,9.441-22.961c0.046-0.046,0.092-0.104,0.139-0.15c5.917-5.917,14.086-9.58,23.111-9.58h45.044H479.32z"/>
	<path style="fill:#2197D8;" d="M138.842,316.751c17.738-0.347,31.998-14.838,31.998-32.656v-1.236
		c0-18.05-14.63-32.691-32.68-32.691h-10.053H32.691c-9.025,0-17.206-3.652-23.123-9.568S0,226.501,0,217.476
		c0-18.05,14.63-32.68,32.691-32.68h110.438h136.878c9.025,0,17.206,3.663,23.123,9.568c5.917,5.917,9.568,14.086,9.568,23.111
		c0,18.062-14.63,32.691-32.691,32.691h-3.848c-18.062,0-32.691,14.641-32.691,32.691v1.236c0,18.05,14.63,32.68,32.691,32.68
		H389.74h63.58c4.437,0,8.678,0.89,12.538,2.496c3.987,1.652,7.569,4.079,10.573,7.084c5.917,5.917,9.58,14.086,9.58,23.111
		c0,18.062-14.641,32.691-32.691,32.691h-29.444h-77.065H181.783H131.99c-9.037,0-17.206-3.652-23.123-9.568
		c-5.905-5.917-9.568-14.098-9.568-23.123c0-18.05,14.63-32.691,32.691-32.691h6.171
		C138.391,316.775,138.611,316.775,138.842,316.751z"/>
</g>
</svg>