<?xml version="1.0" encoding="iso-8859-1"?>
<!-- Uploaded to: SVG Repo, www.svgrepo.com, Generator: SVG Repo Mixer Tools -->
<svg height="800px" width="800px" version="1.1" id="Layer_1" xmlns="http://www.w3.org/2000/svg" xmlns:xlink="http://www.w3.org/1999/xlink" 
	 viewBox="0 0 504.446 504.446" xml:space="preserve">
<g transform="translate(1)">
	<path style="fill:#FFDD09;" d="M251.643,420.092c-135.134,0-244.249-75.541-244.249-167.869S116.508,83.515,251.643,84.354l0,0
		C285.216,194.308,285.216,310.138,251.643,420.092L251.643,420.092z"/>
	<path style="fill:#FFFFFF;" d="M34.252,252.223c0-86.452,95.685-158.636,218.23-167.029c0,0,0,0,0-0.839
		c-135.134,0-244.249,75.541-244.249,167.869s109.115,167.869,244.249,167.869v-0.839v-0.839
		C129.938,410.02,34.252,338.675,34.252,252.223"/>
	<path style="fill:#FD9808;" d="M251.643,84.354c-8.393,0-15.948,0-23.502,0.839c33.574,109.115,33.574,224.944,0,334.059l0,0
		c7.554,0.839,15.108,0.839,23.502,0.839v-0.839C285.216,310.138,285.216,193.469,251.643,84.354"/>
	<g>
		<path style="fill:#FFDD09;" d="M377.544,420.092c-0.839,0-1.679,0-2.518-0.839c-4.197-1.679-6.715-6.715-5.036-10.911
			c18.466-49.521,0-94.007,0-94.846c-0.839-1.679-20.144-51.2,0-106.597c17.626-49.521,0.839-85.613,0-85.613
			c-1.679-4.197,0-9.233,3.357-10.911c4.197-1.679,9.233,0,10.911,3.357c0.839,1.679,20.984,42.807,0,99.043
			c-18.466,49.521-0.839,94.007,0,94.846c0.839,1.679,20.984,51.2,0,106.597C384.259,417.574,380.902,420.092,377.544,420.092z"/>
		<path style="fill:#FFDD09;" d="M486.659,269.01H302.003c-5.036,0-8.393-3.357-8.393-8.393c0-5.036,3.357-8.393,8.393-8.393
			h184.656c5.036,0,8.393,3.357,8.393,8.393C495.052,265.652,491.695,269.01,486.659,269.01z"/>
		<path style="fill:#FFDD09;" d="M486.659,185.075H302.003c-5.036,0-8.393-3.357-8.393-8.393s3.357-8.393,8.393-8.393h184.656
			c5.036,0,8.393,3.357,8.393,8.393S491.695,185.075,486.659,185.075z"/>
		<path style="fill:#FFDD09;" d="M486.659,352.944H302.003c-5.036,0-8.393-3.357-8.393-8.393c0-5.036,3.357-8.393,8.393-8.393
			h184.656c5.036,0,8.393,3.357,8.393,8.393C495.052,349.587,491.695,352.944,486.659,352.944z"/>
	</g>
	<path d="M251.643,428.485L251.643,428.485C112.311,428.485-1,348.748-1,252.223c0-36.931,15.948-71.344,45.325-101.561
		c47.003-46.164,124.223-74.702,206.479-74.702h0.839c3.357,0,6.715,2.518,8.393,5.875c33.574,111.633,33.574,229.141,0,340.774
		C259.197,425.967,255,428.485,251.643,428.485z M245.767,92.748c-75.541,0.839-146.046,26.859-188.852,70.505
		c-26.859,26.859-41.128,57.915-41.128,89.81c0,86.452,102.4,156.957,229.98,159.475C275.984,307.62,275.984,197.666,245.767,92.748
		z"/>
	<path d="M385.938,411.698c-0.839,0-1.679,0-2.518-0.839c-4.197-1.679-6.715-6.715-5.036-10.911c18.466-49.521,0-94.007,0-94.846
		c-0.839-1.679-20.144-51.2,0-106.597c17.626-49.521,0.839-85.613,0-85.613c-1.679-4.197,0-9.233,3.357-10.911
		c4.197-1.679,9.233,0,10.911,3.357c0.839,1.679,20.984,42.807,0,99.043c-18.466,49.521-0.839,94.007,0,94.846
		c0.839,1.679,20.984,51.2,0,106.597C392.652,409.18,389.295,411.698,385.938,411.698z"/>
	<path d="M495.052,260.616H310.397c-5.036,0-8.393-3.357-8.393-8.393c0-5.036,3.357-8.393,8.393-8.393h184.656
		c5.036,0,8.393,3.357,8.393,8.393C503.446,257.259,500.089,260.616,495.052,260.616z"/>
	<path d="M495.052,176.682H310.397c-5.036,0-8.393-3.357-8.393-8.393s3.357-8.393,8.393-8.393h184.656
		c5.036,0,8.393,3.357,8.393,8.393S500.089,176.682,495.052,176.682z"/>
	<path d="M495.052,344.551H310.397c-5.036,0-8.393-3.357-8.393-8.393s3.357-8.393,8.393-8.393h184.656
		c5.036,0,8.393,3.357,8.393,8.393S500.089,344.551,495.052,344.551z"/>
</g>
</svg>