<?xml version="1.0" encoding="iso-8859-1"?>
<!-- Uploaded to: SVG Repo, www.svgrepo.com, Generator: SVG Repo Mixer Tools -->
<svg version="1.1" id="Layer_1" xmlns="http://www.w3.org/2000/svg" xmlns:xlink="http://www.w3.org/1999/xlink" 
	 viewBox="0 0 511.984 511.984" xml:space="preserve">
<g>
	<rect x="88.891" y="224.002" style="fill:#CCD1D9;" width="31.999" height="21.327"/>
	<rect x="88.891" y="96.002" style="fill:#CCD1D9;" width="31.999" height="21.327"/>
</g>
<path style="fill:#E6E9ED;" d="M85.337,511.984c-5.89,0-10.671-4.781-10.671-10.656V51.334c0-5.891,4.781-10.672,10.671-10.672
	c5.891,0,10.664,4.781,10.664,10.672v449.994C96.001,507.203,91.227,511.984,85.337,511.984z"/>
<path style="fill:#ED5564;" d="M404.272,120.035L117.336,85.333V256l286.937-34.717c30.78-3.703,54.372-24.968,54.372-50.624
	C458.645,145.004,435.053,123.754,404.272,120.035z"/>
<g>
	<polygon style="fill:#E6E9ED;" points="191.521,247.015 255.519,239.281 255.519,102.052 191.521,94.302 	"/>
	<polygon style="fill:#E6E9ED;" points="319.525,231.532 383.522,223.798 383.522,117.519 319.525,109.785 	"/>
</g>
<path style="fill:#CCD1D9;" d="M85.337,0C67.658,0,53.338,14.328,53.338,31.999s14.32,32,31.999,32
	c17.671,0,31.999-14.328,31.999-32C117.336,14.328,103.008,0,85.337,0L85.337,0z"/>
<path style="fill:#E6E9ED;" d="M74.665,31.999c5.882,0,10.671-4.788,10.671-10.663c0-5.883-4.789-10.672-10.671-10.672
	c-5.883,0-10.664,4.789-10.664,10.672C64.001,27.211,68.783,31.999,74.665,31.999z"/>
</svg>